<?xml version="1.0" encoding="UTF-8"?>
<svg width="360px" height="42px" viewBox="0 0 360 42" version="1.1" xmlns="http://www.w3.org/2000/svg" xmlns:xlink="http://www.w3.org/1999/xlink">
    <!-- Generator: Sketch 43.2 (39069) - http://www.bohemiancoding.com/sketch -->
    <title>logo-text-white</title>
    <desc>Created with Sketch.</desc>
    <defs></defs>
    <g id="Page-1" stroke="none" stroke-width="1" fill="none" fill-rule="evenodd">
        <g id="logo-text-white" fill="#FFFFFF">
            <g id="Text">
                <path d="M20.3989265,36.9361554 C29.4357326,36.9361554 36.8765697,29.5479558 36.8765697,20.5111496 C36.8765697,11.4785545 29.4357326,3.97876341 20.3989265,3.97876341 C11.3642259,3.97876341 3.97813176,11.4785545 3.97813176,20.5111496 C3.97813176,29.5479558 11.3642259,36.9361554 20.3989265,36.9361554 M20.3989265,-0.000631650009 C31.7623102,-0.000631650009 40.8559648,9.14987148 40.8559648,20.5111496 C40.8559648,31.8787443 31.7623102,40.9134449 20.3989265,40.9134449 C9.03343733,40.9134449 0.000842200012,31.8787443 0.000842200012,20.5111496 C0.000842200012,9.14987148 9.03343733,-0.000631650009 20.3989265,-0.000631650009" id="Fill-1"></path>
                <path d="M65.9754224,21.7062315 C70.6327884,21.7062315 74.6121835,17.8994874 74.6121835,13.0147273 C74.6121835,8.41210427 70.6327884,4.88960272 65.9754224,4.88960272 L56.9386162,4.88960272 L56.9386162,21.7062315 L65.9754224,21.7062315 Z M52.6223412,1.64923817 C52.6223412,1.08075317 53.0792347,0.569116658 53.7024627,0.569116658 L66.2596649,0.569116658 C73.249925,0.569116658 78.9874125,6.25186124 78.9874125,13.1263188 C78.9874125,20.1734274 73.249925,25.910915 66.3165134,25.910915 L56.9386162,25.910915 L56.9386162,39.2639962 C56.9386162,39.8324812 56.4290852,40.3462232 55.8627057,40.3462232 L53.7024627,40.3462232 C53.0792347,40.3462232 52.6223412,39.8324812 52.6223412,39.2639962 L52.6223412,1.64923817 Z" id="Fill-4"></path>
                <path d="M85.3085447,38.3569468 L102.923158,20.0601515 L85.3085447,2.44132729 L85.3085447,1.42226527 C85.3085447,0.965371764 85.6496357,0.569537758 86.1044237,0.569537758 L109.115434,0.569537758 C109.570222,0.569537758 109.968161,0.965371764 109.968161,1.42226527 L109.968161,3.80990231 C109.968161,4.26258481 109.570222,4.66052432 109.115434,4.66052432 L92.6946388,4.66052432 L106.331963,17.7862115 C106.618311,18.0683485 107.18469,18.579985 107.18469,19.2642725 L107.18469,20.7970766 C107.18469,21.3655616 106.618311,21.8793036 106.331963,22.2161836 L92.6946388,36.3104008 L109.115434,36.3104008 C109.570222,36.3104008 109.968161,36.6514918 109.968161,37.1041743 L109.968161,39.4918113 C109.968161,39.9487048 109.570222,40.3445388 109.115434,40.3445388 L86.1044237,40.3445388 C85.6496357,40.3445388 85.3085447,39.9487048 85.3085447,39.4918113 L85.3085447,38.3569468 Z" id="Fill-6"></path>
                <path d="M120.794642,1.02537851 C120.794642,0.454788007 121.306279,0 121.874764,0 L123.293871,0 L148.922017,31.9362245 L149.035714,31.9362245 L149.035714,1.64860652 C149.035714,1.08012152 149.490502,0.568485008 150.115836,0.568485008 L152.103428,0.568485008 C152.671913,0.568485008 153.183549,1.08012152 153.183549,1.64860652 L153.183549,39.8886981 C153.183549,40.4592886 152.671913,40.9119711 152.103428,40.9119711 L151.08226,40.9119711 L125.001431,8.35251862 L124.942477,8.35251862 L124.942477,39.2633646 C124.942477,39.8339551 124.485584,40.3455916 123.862356,40.3455916 L121.874764,40.3455916 C121.306279,40.3455916 120.794642,39.8339551 120.794642,39.2633646 L120.794642,1.02537851 Z" id="Fill-8"></path>
                <path d="M172.12947,0.797142312 C172.243167,0.340248805 172.700061,-0.000842200012 173.150638,-0.000842200012 L174.062319,-0.000842200012 C174.458153,-0.000842200012 174.915047,0.285505804 175.026638,0.624491309 L186.27843,31.9353823 L186.562673,31.9353823 L197.641814,0.624491309 C197.755511,0.285505804 198.210299,-0.000842200012 198.608239,-0.000842200012 L199.517815,-0.000842200012 C199.972603,-0.000842200012 200.425285,0.340248805 200.541088,0.797142312 L207.870333,38.9824909 C208.040879,39.7762644 207.699788,40.3447494 206.84706,40.3447494 L204.57312,40.3447494 C204.120438,40.3447494 203.66565,39.9489154 203.551953,39.5467649 L198.494542,10.2866309 L198.267148,10.2866309 L187.811234,40.2900064 C187.697537,40.6268864 187.188006,40.9132344 186.846915,40.9132344 L185.823642,40.9132344 C185.482551,40.9132344 184.970915,40.6268864 184.857218,40.2900064 L174.289713,10.2866309 L174.062319,10.2866309 L169.1165,39.5467649 C169.061757,39.9489154 168.548015,40.3447494 168.095332,40.3447494 L165.821392,40.3447494 C164.97077,40.3447494 164.627574,39.7762644 164.798119,38.9824909 L172.12947,0.797142312 Z" id="Fill-10"></path>
                <path d="M242.821002,26.8198594 C240.041742,20.6275838 237.310908,14.3784597 234.527437,8.18197312 L234.072649,8.18197312 L225.776979,26.8198594 L242.821002,26.8198594 Z M215.834808,38.8675306 L233.106225,0.625333509 C233.278876,0.284242504 233.561013,0 234.072649,0 L234.641134,0 C235.150665,0 235.437013,0.284242504 235.607559,0.625333509 L252.767384,38.8675306 C253.108475,39.6065611 252.655793,40.3455916 251.803065,40.3455916 L249.529125,40.3455916 C249.017489,40.3455916 248.676398,40.0045006 248.564806,39.7202581 L244.355912,30.3465719 L224.185221,30.3465719 L220.037386,39.7202581 C219.925795,40.0045006 219.584704,40.3455916 219.073067,40.3455916 L216.799127,40.3455916 C215.9464,40.3455916 215.493717,39.6065611 215.834808,38.8675306 L215.834808,38.8675306 Z" id="Fill-13"></path>
                <path d="M265.043923,4.37480796 L255.158601,4.37480796 C254.531162,4.37480796 254.078479,3.86527696 254.078479,3.29468645 L254.078479,1.64818542 C254.078479,1.08180592 254.531162,0.568063908 255.158601,0.568063908 L279.249732,0.568063908 C279.877171,0.568063908 280.329853,1.08180592 280.329853,1.64818542 L280.329853,3.29468645 C280.329853,3.86527696 279.877171,4.37480796 279.249732,4.37480796 L269.364409,4.37480796 L269.364409,39.2629435 C269.364409,39.833534 268.854878,40.3451705 268.284288,40.3451705 L266.124045,40.3451705 C265.55556,40.3451705 265.043923,39.833534 265.043923,39.2629435 L265.043923,4.37480796 Z" id="Fill-15"></path>
                <path d="M289.670483,1.64839597 C289.670483,1.07991097 290.18212,0.568274458 290.750605,0.568274458 L292.965591,0.568274458 C293.590924,0.568274458 294.045712,1.07991097 294.045712,1.64839597 L294.045712,18.2418417 L317.115676,18.2418417 L317.115676,1.64839597 C317.115676,1.07991097 317.570464,0.568274458 318.195798,0.568274458 L320.410784,0.568274458 C320.979269,0.568274458 321.4888,1.07991097 321.4888,1.64839597 L321.4888,39.263154 C321.4888,39.8337445 320.979269,40.345381 320.410784,40.345381 L318.195798,40.345381 C317.570464,40.345381 317.115676,39.8337445 317.115676,39.263154 L317.115676,22.0464803 L294.045712,22.0464803 L294.045712,39.263154 C294.045712,39.8337445 293.590924,40.345381 292.965591,40.345381 L290.750605,40.345381 C290.18212,40.345381 289.670483,39.8337445 289.670483,39.263154 L289.670483,1.64839597 Z" id="Fill-17"></path>
                <path d="M333.497309,34.3781834 C333.779446,34.0370924 334.063688,33.6391529 334.347931,33.2980619 C334.916416,32.5611369 335.543855,32.1063489 336.337628,32.7885309 C336.733462,33.1254109 340.883403,37.1048059 345.938708,37.1048059 C350.541331,37.1048059 353.552196,34.2076379 353.552196,30.8556818 C353.552196,26.9331353 350.143392,24.6023468 343.610025,21.8778297 C337.360901,19.1491017 333.611006,16.5930246 333.611006,10.1165065 C333.611006,6.25291399 336.678719,-0.000421100006 345.715525,-0.000421100006 C351.278256,-0.000421100006 355.430302,2.89885244 355.430302,2.89885244 C355.769288,3.06729244 356.45147,3.74947445 355.769288,4.83170147 C355.543999,5.17279247 355.316605,5.56862648 355.089211,5.90971749 C354.577575,6.703491 354.00909,6.9329905 353.099514,6.42135399 C352.701574,6.19185449 349.122224,3.80842846 345.654466,3.80842846 C339.63063,3.80842846 337.813584,7.66991551 337.813584,10.0575525 C337.813584,13.8664021 340.712857,16.0834936 345.486026,18.0689802 C353.156362,21.1956477 358.102182,24.0928157 358.102182,30.6830308 C358.102182,36.5952749 352.47418,40.9136555 345.825011,40.9136555 C339.121099,40.9136555 334.57743,36.9911089 333.8384,36.3110324 C333.381506,35.9130929 332.813021,35.4583049 333.497309,34.3781834" id="Fill-19"></path>
            </g>
        </g>
    </g>
</svg>